<svg width="400" height="240" xmlns="http://www.w3.org/2000/svg">
 <g>
  <title>Layer 1</title>
  <rect stroke="#000" id="svg_1" height="211" width="355.00001" y="13.5" x="23" stroke-width="0" fill="#396849"/>
  <rect stroke="#000" id="svg_2" height="194" width="166.99999" y="22.49999" x="29" stroke-width="0" fill="#ffffff"/>
  <rect stroke="#000" id="svg_3" height="195.00001" width="168" y="22.49999" x="201.99999" stroke-width="0" fill="#ffffff"/>
  <text xml:space="preserve" text-anchor="start" font-family="sans-serif" font-size="24" id="svg_4" y="80.5" x="238" stroke-width="0" stroke="#000" fill="#000000">Dziennik</text>
  <text xml:space="preserve" text-anchor="start" font-family="sans-serif" font-size="24" id="svg_6" y="121.5" x="216" stroke-width="0" stroke="#000" fill="#000000">Miłośnika</text>
  <text xml:space="preserve" text-anchor="start" font-family="sans-serif" font-size="24" id="svg_8" y="160.5" x="283" stroke-width="0" stroke="#000" fill="#000000">Kolei</text>
  <path id="svg_10" d="m123.05677,149.50059c3.37235,-0.99131 6.13843,-1.91443 0.89981,-1.94145c-4.62644,0.49799 -16.59463,-3.16237 -7.00262,-4.96153c6.00089,-1.87649 19.65758,2.45777 19.73038,-4.95606c-1.08557,-4.6462 -18.70154,-1.01848 -12.90646,-7.24966c6.38222,-2.09003 19.03764,2.83435 21.1786,-3.63303c-1.9626,-6.27089 -14.23809,-2.26883 -20.40806,-4.0019c-5.9813,0.98809 -7.55648,-5.31109 -0.84352,-4.36031c15.51852,-0.67052 31.14528,0.31355 46.61034,-1.05482c2.49813,-1.10821 4.34474,-7.92532 1.19221,-8.3844c-22.52782,-0.37385 -45.09545,-0.03023 -67.5876,-1.14535c-8.08069,-0.06721 -1.9066,-6.97775 4.06457,-5.35483c5.68788,-1.49171 7.94201,-5.40307 12.11654,-9.26524c2.13325,-8.44196 -8.11937,-5.30868 -12.30646,-2.83837c-4.6755,2.45488 -12.71754,7.5505 -16.98376,10.22551c-3.73978,2.16576 -12.35594,4.56902 -17.59724,7.4722c-4.48007,1.27511 -9.38263,0.64029 -13.78288,0.86926c0,11.43792 0,22.87567 0,34.31358c12.44906,4.34134 25.54892,8.15478 39.35037,7.71854c8.0848,-0.02637 16.40183,0.21579 24.27578,-1.45215l0,0zm-51.2907,3.66856c-6.35506,-1.9556 -12.6986,-3.93613 -18.99608,-6.00815c0.30137,-14.28352 0.60273,-28.5672 0.90408,-42.85073c5.02796,-0.15292 12.48863,1.84449 16.07244,-1.09663c9.63527,-2.47674 15.89099,-7.95475 24.33767,-12.0663c5.94419,-3.74076 10.69214,-5.01748 16.83169,-7.85441c4.66326,-1.72711 7.18819,-0.84515 12.4393,-0.09214c2.29025,3.00158 5.13341,4.55295 3.65807,10.27102c-3.07852,1.24022 -7.07362,9.5759 -1.02381,9.64214c16.8427,1.29264 33.95659,-0.5242 50.6668,1.73499c4.16098,4.51162 4.95452,14.6474 -2.66106,17.50845c-7.28796,1.68755 -14.97208,0.85045 -22.45978,1.05337c-0.00046,4.26817 0.88064,9.71498 -5.03457,11.85904c-4.36775,4.56243 -4.6749,11.2649 -11.71294,14.60335c-5.91921,4.85765 -14.34535,6.35821 -22.56423,6.19806c-13.47695,0.14632 -27.66266,1.18104 -40.45758,-2.90174l0,-0.00032l0,0.00001z" stroke-width="0" stroke="#000" fill="#000000"/>
 </g>

</svg>